<?xml version="1.0" encoding="UTF-8"?>
<!DOCTYPE svg PUBLIC "-//W3C//DTD SVG 1.1//EN" "http://www.w3.org/Graphics/SVG/1.1/DTD/svg11.dtd">
<!-- Creator: CorelDRAW 2020 (64-Bit) -->
<svg xmlns="http://www.w3.org/2000/svg" xml:space="preserve" width="240mm" height="119.616mm" version="1.1" style="shape-rendering:geometricPrecision; text-rendering:geometricPrecision; image-rendering:optimizeQuality; fill-rule:evenodd; clip-rule:evenodd"
viewBox="0 0 24000 11961.65"
 xmlns:xlink="http://www.w3.org/1999/xlink"
 xmlns:xodm="http://www.corel.com/coreldraw/odm/2003">
 <defs>
  <style type="text/css">
   <![CDATA[
    .fil0 {fill:#F18917}
    .fil1 {fill:#3F4548}
   ]]>
  </style>
 </defs>
 <g id="Layer_x0020_1">
  <metadata id="CorelCorpID_0Corel-Layer"/>
  <path class="fil0" d="M7177.15 2855c-55.45,281.87 -58.23,560.38 -13.12,830.9 158.89,21.31 317.98,42.62 476.58,63.26 127.14,16.67 246.48,69.96 272.82,154.58 51.67,165.93 101.9,327.84 150.94,485.05 24.23,77.97 -58.52,126.62 -167.75,141.27 -135.48,18.01 -271.24,36.64 -405.85,54.64 133.51,227.23 301.12,443.11 497.22,643.66 119.43,-28.01 240.15,-55.98 361.64,-84 97.22,-22.65 215.02,-13.31 286.47,46.65 142.18,115.93 280.91,231.2 416.81,343.16 67.47,55.98 38.69,116.61 -30.26,157.88 -85.24,51.34 -169.57,102.63 -253.14,153.29 234.7,145.25 492.33,275.16 768.17,385.74 70.92,-53.3 142.56,-107.94 214.87,-162.53 57.94,-44.68 151.08,-68.67 245.61,-39.32 185.14,58.62 369.12,116.61 550.28,173.21 91.08,28.64 109.81,87.3 84.86,139.26 -32.04,66.66 -63.79,130.59 -95.01,195.23 292.69,61.97 587,103.25 880.17,125.95 19.78,-64.65 39.84,-129.3 60.87,-195.91 15.8,-53.3 76.33,-99.94 174.74,-99.94 196.82,0 393.63,0 590.45,0 99.18,0 159.71,46.64 176.28,99.94 20.3,65.94 40.36,130.59 59.38,195.24 297.71,-23.32 592.22,-65.99 879.55,-126.62 -30.56,-63.97 -61.54,-127.9 -92.95,-193.22 -25.67,-52.63 -6.18,-111.29 84.14,-139.93 181.15,-57.27 365.19,-115.27 550.32,-173.88 93.67,-29.31 187.58,-4.69 245.52,39.32 72.36,55.26 144.05,109.23 214.1,163.2 268.8,-107.94 527.44,-236.52 770.37,-386.41 -84.23,-50.66 -169.38,-101.28 -254.62,-152.62 -68.95,-41.27 -97.64,-102.57 -30.31,-157.88 135.91,-112.63 274.64,-227.23 415.9,-343.83 72.46,-59.96 189.93,-67.96 288.19,-45.98 122.16,28.02 242.84,55.99 363.8,84 200.03,-203.24 366.01,-419.11 497.6,-644.33 -137.34,-18 -273.29,-35.96 -409.44,-54.64 -109.23,-14.65 -191.98,-62.63 -167.84,-140.6 49.04,-157.88 99.46,-319.79 151.85,-485.72 25.33,-83.95 145.58,-137.24 271.81,-153.91 158.56,-20.64 316.73,-41.95 475.33,-62.64 42.62,-274.49 38.65,-553 -16.52,-830.85 -167.46,38.65 -335.26,78.64 -501,117.28 -132.41,31.32 -264.91,19.3 -307.48,-64.65 -83.04,-170.57 -170.2,-345.79 -258.74,-523.7 -44.25,-92.61 38.21,-195.86 161.04,-266.49 155.4,-91.27 312.28,-181.92 471.03,-273.87 -190.98,-278.51 -440.62,-543 -749.92,-784.21 -148.36,116.61 -294.99,233.89 -439.04,347.81 -113.06,89.26 -261.94,139.26 -375.77,79.3 -229.57,-119.28 -463.98,-239.19 -700.69,-363.13 -121.49,-61.96 -123.89,-193.22 -60.15,-315.15 81.6,-153.28 165.12,-313.18 249.88,-472.41 -438.27,-164.59 -902.11,-275.83 -1379.74,-336.45 -46.54,173.2 -92.23,344.45 -136.86,508.99 -35.39,131.93 -136.1,241.21 -287.04,241.21 -301.93,0 -603.86,0 -906.99,0 -150.94,0 -250.5,-109.28 -285.93,-241.21 -44.59,-163.2 -90.22,-333.77 -137.92,-505.69 -482.28,62.64 -945.64,175.89 -1376.91,337.13 83.42,158.6 165.5,315.82 246.86,467.76 64.02,123.27 61.53,253.86 -58.86,315.82 -237.81,123.94 -472.22,243.85 -701.74,363.13 -113.83,59.96 -262.52,11.31 -375.77,-79.3 -144.1,-113.92 -289.39,-229.86 -437.74,-347.13 -300.93,234.55 -553.54,496.4 -752.17,782.86 159.84,91.99 316.72,183.27 473.22,274.54 122.02,71.3 205.29,173.88 160.04,265.82 -88.26,179.92 -174.55,353.8 -258.35,525.04 -41.76,83.28 -174.27,95.3 -306.67,63.98 -167.99,-39.31 -336.61,-78.63 -506.42,-117.95zm2869.24 551.05c-243.13,366.43 -235.85,761.03 -44.97,1099.35 180.49,319.94 529.54,593.66 1001.09,756.91 458.62,159.9 967.47,191.36 1431.55,115.94 470.35,-76.43 912.93,-266.5 1219.12,-560.33 320.9,-309.17 439.13,-682.31 357.91,-1040.75 -86.19,-380.41 -394.97,-740.91 -914.41,-973.45 -537.2,-239.87 -1173.96,-289.1 -1748.61,-171.92 -565.22,115.27 -1045.58,387.12 -1301.68,774.25z"/>
  <path class="fil1" d="M15922.56 10189.85l-189.82 0 -620.43 0c-375.83,0 -685.51,-307.73 -685.51,-685.18l0 -209.89 0 -512.73 0 -209.85c0,-377.21 309.68,-685.03 685.51,-685.03l620.43 0 189.82 0 620.44 0c375.82,0 685.51,307.97 685.51,685.03l0 209.85 0 512.73 0 209.89c0,377.45 -309.74,685.18 -685.51,685.18l-620.44 0zm-11834.82 1042.1l0 713.39 -164.08 0 0 -578.87 -322.05 0 0 578.87 -164.08 0 0 -713.39 650.21 0zm607.22 0c63.19,0 118.05,10.53 164.59,31.59 46.54,21.06 82.38,50.96 107.52,89.69 25.14,38.72 37.71,84.58 37.71,137.58 0,52.31 -12.57,98 -37.71,137.07 -25.14,39.07 -60.98,68.96 -107.52,89.68 -46.54,20.73 -101.4,31.09 -164.59,31.09l-143.7 0 0 196.69 -165.1 0 0 -713.39 308.8 0zm-9.17 382.17c49.6,0 87.3,-10.7 113.12,-32.1 25.82,-21.4 38.73,-51.81 38.73,-91.21 0,-40.09 -12.91,-70.83 -38.73,-92.23 -25.82,-21.4 -63.52,-32.11 -113.12,-32.11l-134.53 0 0 247.65 134.53 0zm899.71 343.45c-74.05,0 -140.81,-15.97 -200.26,-47.9 -59.44,-31.93 -105.98,-75.92 -139.62,-131.98 -33.63,-56.05 -50.44,-119.07 -50.44,-189.05 0,-69.98 16.81,-132.99 50.44,-189.04 33.64,-56.06 80.18,-100.05 139.62,-131.98 59.45,-31.93 126.21,-47.9 200.26,-47.9 74.06,0 140.64,15.97 199.75,47.9 59.11,31.93 105.65,75.92 139.62,131.98 33.98,56.05 50.96,119.06 50.96,189.04 0,69.98 -16.98,133 -50.96,189.05 -33.97,56.06 -80.51,100.05 -139.62,131.98 -59.11,31.93 -125.69,47.9 -199.75,47.9zm0 -140.64c42.13,0 80.18,-9.68 114.15,-29.05 33.97,-19.36 60.63,-46.37 80,-81.02 19.36,-34.65 29.04,-74.05 29.04,-118.22 0,-44.16 -9.68,-83.56 -29.04,-118.21 -19.37,-34.65 -46.03,-61.66 -80,-81.03 -33.97,-19.36 -72.02,-29.04 -114.15,-29.04 -42.12,0 -80.17,9.68 -114.14,29.04 -33.97,19.37 -60.64,46.38 -80,81.03 -19.36,34.65 -29.05,74.05 -29.05,118.21 0,44.17 9.69,83.57 29.05,118.22 19.36,34.65 46.03,61.66 80,81.02 33.97,19.37 72.02,29.05 114.14,29.05zm1288.01 128.41l-1.02 -427.02 -209.94 351.6 -73.38 0 -209.94 -343.44 0 418.86 -154.91 0 0 -713.39 136.57 0 267.01 443.32 262.94 -443.32 136.56 0 1.02 713.39 -154.91 0zm798.82 -478.99c86.97,0 153.72,19.36 200.26,58.09 46.54,38.73 69.81,96.14 69.81,172.23 0,80.85 -25.65,142.51 -76.95,184.97 -51.29,42.47 -123.48,63.7 -216.56,63.7l-322.05 0 0 -713.39 164.08 0 0 234.4 181.41 0zm-32.61 356.69c42.8,0 76.26,-10.53 100.38,-31.59 24.12,-21.06 36.18,-51.63 36.18,-91.72 0,-74.06 -45.52,-111.09 -136.56,-111.09l-148.8 0 0 234.4 148.8 0zm393.38 -591.09l164.08 0 0 713.39 -164.08 0 0 -713.39zm1404.19 0l0 713.39 -941.68 0 0 -713.39 164.08 0 0 578.86 225.23 0 0 -578.86 164.08 0 0 578.86 224.21 0 0 -578.86 164.08 0zm929.27 0l0 713.39 -163.06 0 0 -578.87 -244.59 0 -5.1 148.8c-3.39,101.23 -11.55,183.27 -24.46,246.12 -12.9,62.84 -34.48,111.08 -64.71,144.71 -30.23,33.63 -72.53,50.45 -126.88,50.45 -22.42,0 -49.6,-3.74 -81.53,-11.21l10.19 -139.62c8.83,2.72 18.68,4.08 29.55,4.08 39.41,0 66.93,-23.27 82.55,-69.81 15.63,-46.54 25.48,-119.41 29.56,-218.61l10.19 -289.43 548.29 0zm851.81 580.9l0 132.49 -552.37 0 0 -713.39 539.12 0 0 132.49 -375.04 0 0 154.9 331.22 0 0 128.41 -331.22 0 0 165.1 388.29 0zm908.89 -580.9l0 713.39 -165.1 0 0 -292.49 -324.09 0 0 292.49 -165.1 0 0 -713.39 165.1 0 0 281.28 324.09 0 0 -281.28 165.1 0zm953.73 0l0 713.39 -165.1 0 0 -292.49 -324.09 0 0 292.49 -165.1 0 0 -713.39 165.1 0 0 281.28 324.09 0 0 -281.28 165.1 0zm782.51 560.52l-331.22 0 -63.18 152.87 -169.18 0 317.97 -713.39 163.06 0 318.99 713.39 -173.25 0 -63.19 -152.87zm-51.97 -125.35l-113.13 -273.13 -113.12 273.13 226.25 0zm1037.3 -435.17l0 713.39 -163.06 0 0 -189.56 -150.83 0 -126.38 189.56 -174.27 0 148.8 -215.04c-48.24,-19.7 -85.27,-49.42 -111.09,-89.17 -25.82,-39.75 -38.73,-87.48 -38.73,-143.19 0,-55.03 12.57,-102.42 37.71,-142.17 25.14,-39.74 60.81,-70.32 107.01,-91.72 46.2,-21.4 100.55,-32.1 163.06,-32.1l307.78 0zm-303.7 134.52c-46.88,0 -82.72,10.87 -107.52,32.62 -24.8,21.74 -37.2,54.01 -37.2,96.81 0,41.45 11.89,73.38 35.67,95.8 23.78,22.42 58.77,33.63 104.97,33.63l144.72 0 0 -258.86 -140.64 0zm1623.02 0l-339.37 0 1.01 578.87 -164.08 0 0 -713.39 503.45 0 -1.01 134.52zm531.8 -134.52c63.19,0 118.05,10.53 164.59,31.59 46.54,21.06 82.38,50.96 107.52,89.69 25.14,38.72 37.71,84.58 37.71,137.58 0,52.31 -12.57,98 -37.71,137.07 -25.14,39.07 -60.98,68.96 -107.52,89.68 -46.54,20.73 -101.4,31.09 -164.59,31.09l-143.7 0 0 196.69 -165.1 0 0 -713.39 308.8 0zm-9.17 382.17c49.6,0 87.3,-10.7 113.12,-32.1 25.82,-21.4 38.73,-51.81 38.73,-91.21 0,-40.09 -12.91,-70.83 -38.73,-92.23 -25.82,-21.4 -63.52,-32.11 -113.12,-32.11l-134.53 0 0 247.65 134.53 0zm1177.93 -382.17l-303.7 564.6c-29.21,54.35 -64.37,95.46 -105.48,123.31 -41.1,27.86 -85.77,41.79 -134.01,41.79 -37.37,0 -76.1,-8.16 -116.18,-24.46l39.74 -125.36c28.54,8.84 52.32,13.25 71.34,13.25 20.39,0 38.73,-4.92 55.04,-14.77 16.3,-9.86 31.25,-25.31 44.84,-46.38l6.11 -8.15 -281.28 -523.83 176.31 0 189.56 383.19 195.67 -383.19 162.04 0zm849.78 0l0 713.39 -164.08 0 0 -578.87 -322.05 0 0 578.87 -164.08 0 0 -713.39 650.21 0zm948.63 0l0 713.39 -164.08 0 0 -578.87 -322.05 0 0 578.87 -164.08 0 0 -713.39 650.21 0zm781.49 560.52l-331.22 0 -63.18 152.87 -169.18 0 317.97 -713.39 163.06 0 318.99 713.39 -173.25 0 -63.19 -152.87zm-51.97 -125.35l-113.13 -273.13 -113.12 273.13 226.25 0zm-4338.84 -2085.02l-27.68 0 -594.38 0c-101.33,0 -184.37,-82.79 -184.37,-184.31l0 -56.08 0 -606.35 0 -56.22c0,-101.29 82.9,-184.32 184.37,-184.32l594.38 0 27.68 0 166.79 0c101.28,0 184.32,83.08 184.32,184.32l0 56.22 0 606.35 0 56.08c0,101.33 -83.13,184.31 -184.32,184.31l-166.79 0zm-7891.49 607.75l-189.83 0 -620.43 0c-375.82,0 -685.6,-307.73 -685.6,-685.18l0 -209.89 0 -512.73 0 -209.85c0,-377.21 309.78,-685.03 685.6,-685.03l620.43 0 189.83 0 620.43 0c375.82,0 685.61,307.82 685.61,685.03l0 209.85 0 512.73 0 209.89c0,377.45 -309.79,685.18 -685.61,685.18l-620.43 0zm135.28 -607.75l-27.72 0 -594.43 0c-101.33,0 -184.32,-82.79 -184.32,-184.31l0 -56.08 0 -606.35 0 -56.22c0,-101.29 82.89,-184.32 184.32,-184.32l594.43 0 27.72 0 166.79 0c101.29,0 184.37,83.03 184.37,184.32l0 56.22 0 606.35 0 56.08c0,101.33 -83.08,184.31 -184.37,184.31l-166.79 0zm9506.31 -1690.67l0 1852.34c0,346.13 229.04,487.79 583.56,487.79 296.66,0 444.54,-154.97 604.05,-371.56l814.71 -1106.11 0 1436.34 792.16 0 0 -1852.29c0,-346.8 -229,-487.88 -583.51,-487.88 -296.71,0 -444.97,155.68 -604.01,371.61l-814.76 1106.06 0 -1436.3 -792.2 0zm3691.03 -5.69c942.19,0 1558.88,0 2501.07,0l0 2305.54 -829.7 0 0 -1697.32 -841.15 0 0 1133.64c0,182.78 -64.64,319.6 -192.6,406.61 -128.19,86.96 -339.04,137.68 -631.64,150.42 -42.81,4.45 -90.31,6.36 -139.16,6.36l-344.12 0 -5.27 -607.69 274.45 0c139.02,0 208.69,-34.67 208.69,-102.48 0,-567.8 -0.57,-1026.99 -0.57,-1595.08zm-2900.7 -807.82l1213.81 0 0 404.51 -1213.81 0 0 -404.51zm-8832.43 3113.36l911.35 0 424.29 -1413.02 294.12 956.46c85.86,280 231.39,515.61 554.01,520.01 322.67,-4.4 468.2,-240.01 553.97,-520.01l294.22 -956.46 424.23 1413.02 911.35 0 -690.35 -1903.67c-109.47,-302.03 -278.75,-440.28 -583.6,-440.28 -370.03,0 -485.87,153.91 -585.76,488.6l-324.06 1085.22 -324.05 -1085.22c-99.94,-334.69 -215.74,-488.6 -585.76,-488.6 -304.81,0 -474.14,138.25 -583.56,440.28l-690.4 1903.67zm-6336.86 0l0 -2305.54 1926.94 0c253.38,0 455.03,42.95 604.78,128.05 149.79,85.09 224.92,303.27 224.92,435.01l0 569.91c0,140.21 -76.71,362.41 -230.24,447.89 -135.62,72.55 -314.76,108.7 -535.24,108.7l-1161.46 0 0 615.98 -829.7 0zm829.7 -1230.13l808.15 0c192.65,0 289.09,-42.77 289.09,-128.15l0 -224.21c-14.31,-68.34 -85.67,-108.85 -214.1,-121.63l-883.14 0 0 473.99zm-4258.65 1230.13l0 -2305.54c942.19,0 1884,0 2826.19,0l0 2305.54 -829.7 0 0 -1697.32 -1166.79 0 0 1697.32 -829.7 0z"/>
 </g>
</svg>
