<svg width="29" height="24" viewBox="0 0 29 24" fill="none" xmlns="http://www.w3.org/2000/svg">
<path d="M8.91053 13.3226L10.9393 19.9682L11.39 15.7598C11.39 15.7598 19.2283 8.73859 23.6966 4.73658C23.8271 4.61898 23.8452 4.42218 23.7364 4.28418C23.6289 4.14618 23.4307 4.11378 23.2821 4.20738C18.1033 7.49179 8.91053 13.3226 8.91053 13.3226Z" fill="black"/>
<path fill-rule="evenodd" clip-rule="evenodd" d="M22.214 23.735C22.6031 24.0086 23.1045 24.077 23.5516 23.909C23.9986 23.7398 24.3273 23.3606 24.4264 22.901C25.4764 18.0002 28.0235 5.59578 28.9793 1.13778C29.0518 0.801779 28.9309 0.452578 28.6651 0.228178C28.3993 0.00377795 28.0308 -0.0610223 27.7021 0.0601779C22.6357 1.92258 7.03282 7.73659 0.655383 10.0802C0.2506 10.229 -0.0128106 10.6154 0.000480729 11.039C0.0149804 11.4638 0.302557 11.8322 0.717006 11.9558C3.57707 12.8054 7.33127 13.9874 7.33127 13.9874C7.33127 13.9874 9.08573 19.2494 10.0004 21.9254C10.1152 22.2614 10.3798 22.5254 10.729 22.6166C11.077 22.7066 11.4492 22.6118 11.709 22.3682L15.4499 18.8606C15.4499 18.8606 19.7659 22.0034 22.214 23.735ZM10.9393 19.9682L8.91053 13.3226C8.91053 13.3226 18.1033 7.49179 23.2821 4.20738C23.4307 4.11378 23.6289 4.14618 23.7364 4.28418C23.8452 4.42218 23.8271 4.61898 23.6966 4.73658C19.2283 8.73859 11.39 15.7598 11.39 15.7598L10.9393 19.9682Z" fill="white"/>
</svg>
